<?xml version="1.0" encoding="utf-8"?>
<!-- Generator: Adobe Illustrator 23.1.1, SVG Export Plug-In . SVG Version: 6.00 Build 0)  -->
<svg version="1.1" id="Livello_1" xmlns="http://www.w3.org/2000/svg" xmlns:xlink="http://www.w3.org/1999/xlink" x="0px" y="0px"
	 viewBox="0 0 350 350" style="enable-background:new 0 0 350 350;" xml:space="preserve">
<style type="text/css">
	.st0{fill:none;}
	.st1{fill:#FFFFFF;}
	.st2{font-family:'AmsterdamGraffiti';}
	.st3{font-size:180px;}
	.st4{fill:#FFFFFF;stroke:#000000;stroke-width:0.5;stroke-miterlimit:10;}
</style>
<image style="overflow:visible;" width="817" height="814" xlink:href="CAFAC8C560390AF7.jpg"  transform="matrix(0.4284 0 0 0.4284 -2603.2937 6.4284)">
</image>
<image style="overflow:visible;" width="1066" height="1066" xlink:href="CAFAC8C560390AF5.jpg"  transform="matrix(0.3285 0 0 0.3285 -2973 6)">
</image>
<image style="overflow:visible;" width="1633" height="1632" xlink:href="CAFAC8C560390AFB.jpg"  transform="matrix(0.2145 0 0 0.2145 -383.1716 6)">
</image>
<image style="overflow:visible;" width="853" height="850" xlink:href="CAFAC8C560390AFD.jpg"  transform="matrix(0.4109 0 0 0.4109 -753.5266 6)">
</image>
<image style="overflow:visible;" width="804" height="804" xlink:href="CAFAC8C560390AFF.jpg"  transform="matrix(0.4359 0 0 0.4359 -2233 6)">
</image>
<image style="overflow:visible;" width="1200" height="1200" xlink:href="../../img/lambrate.jpg"  transform="matrix(0.2908 0 0 0.2908 -1493 6)">
</image>
<image style="overflow:visible;" width="933" height="933" xlink:href="../../img/madama_hostel.jpg"  transform="matrix(0.3741 0 0 0.3741 -1862 6)">
</image>
<image style="overflow:visible;" width="1541" height="1536" xlink:href="CAFAC8C560390AF4.jpg"  transform="matrix(0.2272 0 0 0.2272 -1123.0273 6)">
</image>
<rect x="9.5" y="129.5" class="st0" width="331" height="91"/>
<text transform="matrix(1 0 0 1 9.5 212.1172)" class="st1 st2 st3">TAAAG</text>
<g>
	<path class="st4" d="M17.6,225.7c1.3,0,3.2,2.8,5.6,8.5l3.6,6.5c2.2,0,3.3,0.8,3.3,2.2c0,0.5-0.4,1.1-1.3,1.7l1.1,4
		c0,1-0.7,1.6-2,1.9c-1.2,0-2.1-1.3-2.5-4c-0.4-0.9-0.7-1.4-0.8-1.4c-3.7,0-7.6,0.5-11.9,1.5c-0.3,0.3-0.5,0.9-0.7,1.9
		c-0.2,0.5-0.8,0.9-1.6,1.1c-1.1,0-1.8-0.8-2.1-2.2v-0.2c0.8-2.6,2.1-6.1,4-10.4c0.9-3.4,2-6.7,3.3-9.9
		C16.2,226.1,16.8,225.7,17.6,225.7z M17.7,232.1l-1.9,6.4l-1.5,3.8h0.1l8.2-0.9v-0.1l-4.7-9.1H17.7z"/>
	<path class="st4" d="M60.2,230.9c1.3,0.3,2,1,2,2c0.4,2.2,0.6,5,0.6,8.5v1.4c0,1.8,0.2,3.7,0.7,5.8c0,1-0.7,1.7-2.1,1.9
		c-0.9,0-1.5-0.6-1.9-1.7c-0.4-2.1-0.7-5.8-0.7-10.9h-0.1c-1.9,2.2-3.7,4.9-5.3,8c-0.5,1.4-1.3,2.2-2.3,2.2c-1.3,0-3.2-2.2-5.7-6.8
		c-0.5-0.8-0.8-1.2-0.9-1.2c-0.2,1-0.4,3.3-0.6,6.9c-0.5,0.9-1.2,1.3-2.2,1.3c-0.9,0-1.5-0.6-1.8-1.9l0.7-7.7l-0.3-4.1
		c0-1.1,0.8-1.8,2.3-2.1c1.4,0,3.9,3,7.3,9l0.8,1h0.1c0.2-0.1,0.8-1.1,1.8-2.9l6.1-8.3C58.9,231.2,59.4,231.1,60.2,230.9z"/>
	<path class="st4" d="M65.8,236c0.9,0,1.5,0.6,1.9,1.8c-0.2,1.3-0.4,2.5-0.4,3.6v0.9c0,1.5,0.2,3.6,0.7,6.4c0,1-0.6,1.6-1.9,1.8v0.1
		c-1.3,0-2.1-1.2-2.2-3.8l-0.5-3.9c-1.2-0.2-1.9-0.8-1.9-1.8V241c0-0.7,0.6-1.4,1.8-2.2c0.7-1.7,1.3-2.6,1.9-2.6L65.8,236z
		 M66.9,228.9c1.2,0.3,1.9,0.9,1.9,1.9c-0.3,2.8-0.7,4.1-1.3,4.1c0,0.1-0.3,0.2-0.9,0.4c-1.2-0.3-1.9-0.9-1.9-1.9h-0.1
		c0.3-2.2,0.6-3.5,1.1-3.8C65.7,229.3,66.1,229.1,66.9,228.9z"/>
	<path class="st4" d="M71.1,229.9c0.9,0,1.6,0.7,2,2.1c0,3.7-0.3,7.5-1,11.2v0.1c1.3-0.4,3.5-0.8,6.6-1.2c0.2-1.3,0.8-2,1.8-2h0.1
		c1,0,1.9,1.1,2.6,3.2c0,1.8-2.7,2.8-8.2,3.2c-2.6,0.6-4.3,1.4-5.1,2.4c-0.4,0.9-1.2,1.4-2.2,1.4c-0.9,0-1.5-0.6-1.8-1.9v-0.1
		c0-0.5,0.4-1.2,1.3-2.2c1.4-3.5,2.1-8.5,2.1-14.7C69.6,230.4,70.3,229.9,71.1,229.9z"/>
	<path class="st4" d="M86.3,227.5H87c2.2,0,4.5,2.2,6.7,6.5l1.7,5.2c1,0,1.8,0.6,2.2,1.7c0,0.7-0.5,1.3-1.5,2.1v0.1
		c0.4,3,0.6,4.9,0.6,5.7c0,1-0.7,1.6-2.1,1.8c-1,0-1.6-0.8-1.8-2.2l-0.6-4.6h-0.1c-1.2,0-4.1,0.9-8.4,2.6v0.2l0.5,1.4
		c-0.2,1.2-0.8,1.8-1.8,1.8v0.1c-1.4,0-2.3-1.5-2.7-4.4l-0.1-1.1c0-6.1,1.2-11.1,3.7-14.9C84.4,228.1,85.4,227.5,86.3,227.5z
		 M83.4,242.2L83.4,242.2c2.1-0.7,4.8-1.5,8.1-2.3c-0.8-3.2-1.6-5.4-2.4-6.5c-1-1.4-1.7-2.1-2.2-2.1c-1,0-2,2.5-3,7.6
		C83.6,239.8,83.5,240.9,83.4,242.2z"/>
	<path class="st4" d="M110.7,231c1.1,0,1.7,0.7,1.9,2.2v5.8l0.2,9.8c0,0.8-0.6,1.4-1.9,1.7h-0.1c-0.7,0-1.6-0.7-2.5-2l-7.5-6.4h-0.2
		c0.2,1.3,0.4,2.8,0.6,4.5c-0.4,1.5-1.1,2.2-2.1,2.2H99c-1,0-1.6-0.7-1.8-2.1l0.1-0.5c0-1.5-0.7-4.6-2.2-9.4l-0.1-0.9
		c0.3-1.2,1-1.8,2-1.8c0.8,0,2.7,1.5,5.8,4.6l5.7,4.8h0.2v-10.5C108.9,231.8,109.5,231,110.7,231z"/>
	<path class="st4" d="M119.5,230.7h1c2.2,0,4.2,1.3,6,3.8c0.7,1.1,1,2.5,1,4.4c0,2.4-1.2,4.8-3.8,7c-2.5,1.8-4.8,2.6-7,2.6
		c-3.3,0-5.3-2.2-6.2-6.5v-0.9l-0.1-0.1l0.1-0.1v-0.6l0.3-1.5l-0.1-1.3C112.4,233,115.3,230.7,119.5,230.7z M114.4,241.5
		c0.3,2.1,0.9,3.2,1.9,3.2h1.1c1.5,0,3.2-0.9,5-2.6c0.9-1.1,1.3-2.2,1.3-3.5c0-1.9-0.8-3.2-2.5-3.8c-0.2-0.1-0.6-0.2-1-0.2h-1.2
		c-1.9,0.4-2.8,0.9-2.8,1.5c-0.9,1.8-1.5,3.3-1.7,4.4V241.5z"/>
	<path class="st4" d="M143,236c0.9,0,1.5,0.6,1.9,1.8c-0.2,1.3-0.4,2.5-0.4,3.6v0.9c0,1.5,0.2,3.6,0.7,6.4c0,1-0.6,1.6-1.9,1.8v0.1
		c-1.3,0-2.1-1.2-2.2-3.8l-0.5-3.9c-1.2-0.2-1.9-0.8-1.9-1.8V241c0-0.7,0.6-1.4,1.8-2.2c0.7-1.7,1.3-2.6,1.9-2.6L143,236z
		 M144.2,228.9c1.2,0.3,1.9,0.9,1.9,1.9c-0.3,2.8-0.7,4.1-1.3,4.1c0,0.1-0.3,0.2-0.9,0.4c-1.2-0.3-1.9-0.9-1.9-1.9h-0.1
		c0.3-2.2,0.6-3.5,1.1-3.8C143,229.3,143.4,229.1,144.2,228.9z"/>
	<path class="st4" d="M171.8,229.1c1.3,0,2.9,2,5,6c1,1.7,2.8,5.3,5.4,11v0.4c0,1.1-0.7,1.8-2.1,1.9c-0.9,0-1.9-1.3-2.9-3.9
		c-2.2-4.5-3.5-7-3.9-7.5h-0.1l-1.9,12.5c-0.7,0.8-1.4,1.2-2.2,1.2c-1.2,0-3.1-2.2-5.8-6.6l-1.2-1.4H162v3.4c-0.2,1.9-0.9,2.9-2,2.9
		c-1.1,0-1.8-0.8-1.9-2.2v-9c0-1.1,0.6-1.8,1.8-2.2h0.1c1.1,0,3.5,2.4,7,7.3l0.9,1.2h0.2c0.9-4.5,1.3-8.6,1.3-12.4
		C169.9,229.9,170.6,229.1,171.8,229.1z"/>
	<path class="st4" d="M184.3,233c0.9,0,1.5,0.6,1.8,1.9c-0.6,4.1-1.6,7.6-3,10.3v0.3c0.8,0.8,2.9,1.5,6.5,2.1l1.5,0.1h0.8
		c0.4,0,0.6-0.9,0.6-2.8V244c0-1.9-0.4-4.6-1.2-8.2c0-1,0.7-1.6,2-1.9c1.2,0,2,1.4,2.2,4.1c0.6,2.2,0.8,4.4,0.8,6.6
		c0,3.3-0.8,5.4-2.3,6.3c-0.5,0.3-1.3,0.5-2.2,0.7c-8.2-0.7-12.4-2.7-12.4-6v-0.3c0-0.6,0.7-2.5,2.1-5.7c0.7-4.2,1.4-6.3,2.1-6.3
		L184.3,233z"/>
	<path class="st4" d="M206.2,228.8c4,0,6.3,1.3,6.9,3.8c0.1,0.2,0.2,0.6,0.2,1v0.3c0,2.2-1.8,5-5.5,8.4v0.1l0.4,0.1l3.9-0.2
		c1,0,1.6,0.7,1.8,2.1c0,1.2-1.1,1.9-3.3,1.9l-3.4,0.1h-1.8c-0.4,0-0.7,0.1-0.7,0.2c0.8,0.9,1.2,1.6,1.2,2.1
		c-0.3,1.2-0.9,1.9-1.9,1.9h-0.2c-0.9,0-2-1.1-3.6-3.4c-0.5-0.2-0.9-1-1.1-2.2c-1.3-2.3-2.8-6-4.7-11c-0.2,0-0.3-0.3-0.4-1
		c0-0.7,0.6-1.6,1.7-2.5C200.8,229.3,204.2,228.8,206.2,228.8z M198.6,233.9c1.9,4.9,3.1,7.6,3.6,8.2h0.1c4.5-3.7,6.9-6.3,7.1-8.1
		v-0.4c0-0.7-1.1-1-3.3-1C201.1,233.1,198.6,233.6,198.6,233.9z"/>
	<path class="st4" d="M217.3,236c0.9,0,1.5,0.6,1.9,1.8c-0.2,1.3-0.4,2.5-0.4,3.6v0.9c0,1.5,0.2,3.6,0.7,6.4c0,1-0.6,1.6-1.9,1.8
		v0.1c-1.3,0-2.1-1.2-2.2-3.8l-0.5-3.9c-1.2-0.2-1.9-0.8-1.9-1.8V241c0-0.7,0.6-1.4,1.8-2.2c0.7-1.7,1.3-2.6,1.9-2.6L217.3,236z
		 M218.4,228.9c1.2,0.3,1.9,0.9,1.9,1.9c-0.3,2.8-0.7,4.1-1.3,4.1c0,0.1-0.3,0.2-0.9,0.4c-1.2-0.3-1.9-0.9-1.9-1.9h-0.1
		c0.3-2.2,0.6-3.5,1.1-3.8C217.2,229.3,217.6,229.1,218.4,228.9z"/>
	<path class="st4" d="M234.7,226.7c0.6,0,1.2,0.4,1.8,1.2l0.7-0.1h0.7c7,0,11.2,0.5,12.7,1.4c0.7,0.6,1,1.5,1,2.6
		c0,1.2-1.7,3.3-5,6.2c-1.6,1.2-3.6,2.4-6,3.6v0.1c0.9,2.9,1.8,4.8,2.4,5.8l0.2,0.9c-0.3,1.4-1,2.1-2,2.1c-1.2,0-2.3-1.6-3.3-4.9
		c-0.6-1.8-1-2.7-1.1-2.7h-0.1l-0.4,0.1c-1.2-0.3-1.9-0.9-1.9-1.9v-0.1c0-0.6,0.4-1.2,1.2-1.8v-0.1c-1.2-4.8-2-7.2-2.4-7.2
		c-0.8-0.4-1.2-0.9-1.2-1.7v-0.2c0-0.4,0.5-1.3,1.4-2.8C233.7,226.9,234.2,226.7,234.7,226.7z M237.6,231.7L237.6,231.7
		c1,3.9,1.6,5.9,1.8,6.1c1.7-0.4,4-2,6.9-4.7c0.4-0.5,0.7-0.8,0.7-0.9h-0.1C243.9,231.8,240.8,231.7,237.6,231.7z"/>
	<path class="st4" d="M256.4,227.5h0.7c2.2,0,4.5,2.2,6.7,6.5l1.7,5.2c1,0,1.8,0.6,2.2,1.7c0,0.7-0.5,1.3-1.5,2.1v0.1
		c0.4,3,0.6,4.9,0.6,5.7c0,1-0.7,1.6-2.1,1.8c-1,0-1.6-0.8-1.8-2.2l-0.6-4.6h-0.1c-1.2,0-4.1,0.9-8.4,2.6v0.2l0.5,1.4
		c-0.2,1.2-0.8,1.8-1.8,1.8v0.1c-1.4,0-2.3-1.5-2.7-4.4l-0.1-1.1c0-6.1,1.2-11.1,3.7-14.9C254.5,228.1,255.6,227.5,256.4,227.5z
		 M253.5,242.2L253.5,242.2c2.1-0.7,4.8-1.5,8.1-2.3c-0.8-3.2-1.6-5.4-2.4-6.5c-1-1.4-1.7-2.1-2.2-2.1c-1,0-2,2.5-3,7.6
		C253.7,239.8,253.6,240.9,253.5,242.2z"/>
	<path class="st4" d="M276.6,228.8c4,0,6.3,1.3,6.9,3.8c0.1,0.2,0.2,0.6,0.2,1v0.3c0,2.2-1.8,5-5.5,8.4v0.1l0.4,0.1l3.9-0.2
		c1,0,1.6,0.7,1.8,2.1c0,1.2-1.1,1.9-3.3,1.9l-3.4,0.1h-1.8c-0.4,0-0.7,0.1-0.7,0.2c0.8,0.9,1.2,1.6,1.2,2.1
		c-0.3,1.2-0.9,1.9-1.9,1.9h-0.2c-0.9,0-2-1.1-3.6-3.4c-0.5-0.2-0.9-1-1.1-2.2c-1.3-2.3-2.8-6-4.7-11c-0.2,0-0.3-0.3-0.4-1
		c0-0.7,0.6-1.6,1.7-2.5C271.2,229.3,274.6,228.8,276.6,228.8z M269,233.9c1.9,4.9,3.1,7.6,3.6,8.2h0.1c4.5-3.7,6.9-6.3,7.1-8.1
		v-0.4c0-0.7-1.1-1-3.3-1C271.5,233.1,269,233.6,269,233.9z"/>
	<path class="st4" d="M287.1,229.9c0.9,0,1.6,0.7,2,2.1c0,3.7-0.3,7.5-1,11.2v0.1c1.3-0.4,3.5-0.8,6.6-1.2c0.2-1.3,0.8-2,1.8-2h0.1
		c1,0,1.9,1.1,2.6,3.2c0,1.8-2.7,2.8-8.2,3.2c-2.6,0.6-4.3,1.4-5.1,2.4c-0.4,0.9-1.2,1.4-2.2,1.4c-0.9,0-1.5-0.6-1.8-1.9v-0.1
		c0-0.5,0.4-1.2,1.3-2.2c1.4-3.5,2.1-8.5,2.1-14.7C285.6,230.4,286.2,229.9,287.1,229.9z"/>
	<path class="st4" d="M302.3,227.5h0.7c2.2,0,4.5,2.2,6.7,6.5l1.7,5.2c1,0,1.8,0.6,2.2,1.7c0,0.7-0.5,1.3-1.5,2.1v0.1
		c0.4,3,0.6,4.9,0.6,5.7c0,1-0.7,1.6-2.1,1.8c-1,0-1.6-0.8-1.8-2.2l-0.6-4.6h-0.1c-1.2,0-4.1,0.9-8.4,2.6v0.2l0.5,1.4
		c-0.2,1.2-0.8,1.8-1.8,1.8v0.1c-1.4,0-2.3-1.5-2.7-4.4l-0.1-1.1c0-6.1,1.2-11.1,3.7-14.9C300.4,228.1,301.4,227.5,302.3,227.5z
		 M299.4,242.2L299.4,242.2c2.1-0.7,4.8-1.5,8.1-2.3c-0.8-3.2-1.6-5.4-2.4-6.5c-1-1.4-1.7-2.1-2.2-2.1c-1,0-2,2.5-3,7.6
		C299.5,239.8,299.4,240.9,299.4,242.2z"/>
	<path class="st4" d="M326.6,231c1.1,0,1.7,0.7,1.9,2.2v5.8l0.2,9.8c0,0.8-0.6,1.4-1.9,1.7h-0.1c-0.7,0-1.6-0.7-2.5-2l-7.5-6.4h-0.2
		c0.2,1.3,0.4,2.8,0.6,4.5c-0.4,1.5-1.1,2.2-2.1,2.2h-0.1c-1,0-1.6-0.7-1.8-2.1l0.1-0.5c0-1.5-0.7-4.6-2.2-9.4l-0.1-0.9
		c0.3-1.2,1-1.8,2-1.8c0.8,0,2.7,1.5,5.8,4.6l5.7,4.8h0.2v-10.5C324.8,231.8,325.5,231,326.6,231z"/>
	<path class="st4" d="M335.4,230.7h1c2.2,0,4.2,1.3,6,3.8c0.7,1.1,1,2.5,1,4.4c0,2.4-1.2,4.8-3.8,7c-2.5,1.8-4.8,2.6-7,2.6
		c-3.3,0-5.3-2.2-6.2-6.5v-0.9l-0.1-0.1l0.1-0.1v-0.6l0.3-1.5l-0.1-1.3C328.4,233,331.3,230.7,335.4,230.7z M330.4,241.5
		c0.3,2.1,0.9,3.2,1.9,3.2h1.1c1.5,0,3.2-0.9,5-2.6c0.9-1.1,1.3-2.2,1.3-3.5c0-1.9-0.8-3.2-2.5-3.8c-0.2-0.1-0.6-0.2-1-0.2h-1.2
		c-1.9,0.4-2.8,0.9-2.8,1.5c-0.9,1.8-1.5,3.3-1.7,4.4V241.5z"/>
</g>
<rect x="376.5" y="141.5" class="st0" width="331" height="91"/>
<text transform="matrix(1 0 0 1 376.5 224.1172)" class="st2 st3">TAAAG</text>
</svg>
